<svg xmlns="http://www.w3.org/2000/svg" width="1684" height="460" viewBox="0 0 1684 460" role="img" aria-labelledby="title desc">
  <title id="title">Zippyy Tech Relay profile header</title>
  <desc id="desc">Hey! I am Zippyy — Technologist, Engineer, Traveler, Explorer, Father.</desc>
  <defs>
    <symbol id="burger" viewBox="0 0 100 70">
      <path d="M20 29c2-15 16-24 30-24s28 9 30 24H20Z"/>
      <path d="M14 35h72c3 0 5 2 5 5s-2 5-5 5H14c-3 0-5-2-5-5s2-5 5-5Z"/>
      <path d="M17 52h66c-2 10-10 15-18 15H35c-8 0-16-5-18-15Z"/>
      <path d="m22 47 10 6 10-6 10 6 10-6 10 6 10-6" fill="none"/>
    </symbol>
    <symbol id="popsicle" viewBox="0 0 70 100">
      <path d="M15 10h40v56c0 11-9 20-20 20s-20-9-20-20V10Z"/>
      <path d="M28 86v10m14-10v10"/>
      <path d="M35 24v45"/>
    </symbol>
    <symbol id="donut" viewBox="0 0 100 100">
      <circle cx="50" cy="50" r="35"/>
      <circle cx="50" cy="50" r="12"/>
      <path d="M21 42c8-12 15-5 23-10 7-5 13 3 21 2 9-1 12 7 16 15" fill="none"/>
      <path d="M32 64l5-5m8 14 2-7m13 3 5-5m-28-21 5 3m22 7 6 2"/>
    </symbol>
    <symbol id="icecream" viewBox="0 0 70 100">
      <path d="M15 32c0-11 9-20 20-20s20 9 20 20H15Z"/>
      <path d="M10 38h50"/>
      <path d="m18 45 17 47 17-47H18Z"/>
      <path d="M24 58h22M28 70h14"/>
    </symbol>
    <symbol id="cup" viewBox="0 0 80 100">
      <path d="M15 26h50l-7 61H22l-7-61Z"/>
      <path d="M10 26h60"/>
      <path d="M48 26V9h16" fill="none"/>
      <circle cx="40" cy="58" r="12"/>
    </symbol>
    <symbol id="fries" viewBox="0 0 80 100">
      <path d="M18 31 22 8m9 23 1-27m12 27 4-26m10 26 7-22"/>
      <path d="M12 34h56l-7 53H19l-7-53Z"/>
      <path d="M22 43h36"/>
    </symbol>
  </defs>

  <rect width="1684" height="460" rx="13" fill="#ffffff"/>
  <rect x="10" y="10" width="1664" height="440" rx="5" fill="#ff84ff"/>

  <g fill="none" stroke="#ffa3ff" stroke-width="4" stroke-linecap="round" stroke-linejoin="round">
    <use href="#burger" x="-20" y="9" width="100" height="70"/>
    <use href="#burger" x="175" y="25" width="120" height="85"/>
    <use href="#burger" x="415" y="8" width="100" height="70"/>
    <use href="#burger" x="620" y="25" width="120" height="85"/>
    <use href="#burger" x="865" y="8" width="100" height="70"/>
    <use href="#burger" x="1070" y="25" width="120" height="85"/>
    <use href="#burger" x="1315" y="8" width="100" height="70"/>
    <use href="#burger" x="1510" y="25" width="120" height="85"/>

    <use href="#cup" x="35" y="120" width="90" height="112"/>
    <use href="#fries" x="195" y="150" width="85" height="105"/>
    <use href="#icecream" x="330" y="128" width="80" height="115"/>
    <use href="#cup" x="490" y="120" width="90" height="112"/>
    <use href="#fries" x="645" y="150" width="85" height="105"/>
    <use href="#icecream" x="785" y="128" width="80" height="115"/>
    <use href="#cup" x="940" y="120" width="90" height="112"/>
    <use href="#fries" x="1095" y="150" width="85" height="105"/>
    <use href="#icecream" x="1235" y="128" width="80" height="115"/>
    <use href="#cup" x="1395" y="120" width="90" height="112"/>
    <use href="#fries" x="1545" y="150" width="85" height="105"/>

    <use href="#burger" x="-40" y="335" width="110" height="78"/>
    <use href="#popsicle" x="94" y="305" width="70" height="100"/>
    <use href="#donut" x="215" y="330" width="105" height="105"/>
    <use href="#burger" x="365" y="325" width="115" height="82"/>
    <use href="#popsicle" x="545" y="305" width="70" height="100"/>
    <use href="#donut" x="665" y="330" width="105" height="105"/>
    <use href="#burger" x="815" y="325" width="115" height="82"/>
    <use href="#popsicle" x="995" y="305" width="70" height="100"/>
    <use href="#donut" x="1115" y="330" width="105" height="105"/>
    <use href="#burger" x="1265" y="325" width="115" height="82"/>
    <use href="#popsicle" x="1445" y="305" width="70" height="100"/>
    <use href="#donut" x="1565" y="330" width="105" height="105"/>
  </g>

  <text x="62" y="223" fill="#7980ff" font-family="'Trebuchet MS','Segoe UI',sans-serif" font-size="78" font-weight="500">Hey! I am Zippyy!</text>
  <text x="62" y="290" fill="#fff2b3" font-family="'Comic Sans MS','Segoe Print',cursive" font-size="42" font-style="italic">Technologist, Engineer, Traveler, Explorer, Father</text>

  <path d="M1339 304L1355 309L1356 308L1360 308L1361 309L1514 309L1515 308L1519 308L1520 309L1536 304ZM1580 231L1579 230L1579 223L1577 220L1574 208L1571 205L1571 203L1563 192L1548 179L1546 179L1543 176L1533 173L1531 171L1527 171L1522 169L1517 169L1516 168L1515 169L1507 169L1506 168L1505 169L1500 169L1490 156L1475 143L1468 140L1466 138L1461 136L1457 136L1451 133L1439 133L1437 132L1436 133L1424 133L1421 135L1409 138L1395 146L1383 158L1375 169L1370 169L1369 168L1368 169L1360 169L1359 168L1358 169L1353 169L1337 174L1324 181L1308 196L1308 198L1303 204L1304 205L1302 206L1302 209L1299 212L1298 215L1299 216L1296 222L1297 225L1296 226L1295 225L1296 226L1296 230L1294 238L1328 238L1327 231L1332 220L1345 207L1353 204L1355 202L1360 202L1361 201L1363 202L1365 201L1367 204L1366 208L1367 206L1368 207L1367 213L1370 219L1369 222L1370 225L1373 225L1378 222L1382 222L1384 220L1388 220L1391 217L1394 217L1401 214L1401 211L1399 207L1399 198L1401 190L1404 186L1404 184L1409 177L1414 174L1416 171L1421 168L1423 168L1425 166L1429 166L1433 164L1442 164L1443 165L1442 166L1443 165L1450 166L1459 171L1460 173L1466 177L1468 181L1454 195L1451 201L1449 202L1449 205L1447 206L1447 208L1444 212L1443 215L1444 216L1441 222L1440 237L1472 237L1473 227L1480 215L1490 206L1498 202L1507 201L1508 200L1523 202L1524 204L1526 204L1534 209L1539 214L1546 225L1548 231L1547 234L1548 238L1580 238Z" fill="#29d0cb" fill-rule="evenodd"/> 
  <path d="M1268 242H1607L1591 271L1607 300H1268L1284 271Z" fill="#253a47"/>
  <text x="1294" y="289" fill="#66a3bb" font-family="'Trebuchet MS','Segoe UI',sans-serif" font-size="54" font-weight="700">Tech Relay</text>
</svg>
