<svg xmlns="http://www.w3.org/2000/svg" width="1684" height="460" viewBox="0 0 1684 460" role="img" aria-labelledby="title desc">
  <title id="title">Zippyy Tech Relay profile header</title>
  <desc id="desc">Hey! I am Zippyy — Technologist, Engineer, Traveler, Explorer, Father.</desc>
  <defs>
    <symbol id="burger" viewBox="0 0 100 70">
      <path d="M20 29c2-15 16-24 30-24s28 9 30 24H20Z"/>
      <path d="M14 35h72c3 0 5 2 5 5s-2 5-5 5H14c-3 0-5-2-5-5s2-5 5-5Z"/>
      <path d="M17 52h66c-2 10-10 15-18 15H35c-8 0-16-5-18-15Z"/>
      <path d="m22 47 10 6 10-6 10 6 10-6 10 6 10-6" fill="none"/>
    </symbol>
    <symbol id="popsicle" viewBox="0 0 70 100">
      <path d="M15 10h40v56c0 11-9 20-20 20s-20-9-20-20V10Z"/>
      <path d="M28 86v10m14-10v10"/>
      <path d="M35 24v45"/>
    </symbol>
    <symbol id="donut" viewBox="0 0 100 100">
      <circle cx="50" cy="50" r="35"/>
      <circle cx="50" cy="50" r="12"/>
      <path d="M21 42c8-12 15-5 23-10 7-5 13 3 21 2 9-1 12 7 16 15" fill="none"/>
      <path d="M32 64l5-5m8 14 2-7m13 3 5-5m-28-21 5 3m22 7 6 2"/>
    </symbol>
    <symbol id="icecream" viewBox="0 0 70 100">
      <path d="M15 32c0-11 9-20 20-20s20 9 20 20H15Z"/>
      <path d="M10 38h50"/>
      <path d="m18 45 17 47 17-47H18Z"/>
      <path d="M24 58h22M28 70h14"/>
    </symbol>
    <symbol id="cup" viewBox="0 0 80 100">
      <path d="M15 26h50l-7 61H22l-7-61Z"/>
      <path d="M10 26h60"/>
      <path d="M48 26V9h16" fill="none"/>
      <circle cx="40" cy="58" r="12"/>
    </symbol>
    <symbol id="fries" viewBox="0 0 80 100">
      <path d="M18 31 22 8m9 23 1-27m12 27 4-26m10 26 7-22"/>
      <path d="M12 34h56l-7 53H19l-7-53Z"/>
      <path d="M22 43h36"/>
    </symbol>
  </defs>

  <rect width="1684" height="460" rx="13" fill="#ffffff"/>
  <rect x="10" y="10" width="1664" height="440" rx="5" fill="#f36df3"/>

  <g fill="none" stroke="#f8b4ef" stroke-width="4" stroke-linecap="round" stroke-linejoin="round" opacity="0.56">
    <use href="#burger" x="-20" y="9" width="100" height="70"/>
    <use href="#burger" x="175" y="25" width="120" height="85"/>
    <use href="#burger" x="415" y="8" width="100" height="70"/>
    <use href="#burger" x="620" y="25" width="120" height="85"/>
    <use href="#burger" x="865" y="8" width="100" height="70"/>
    <use href="#burger" x="1070" y="25" width="120" height="85"/>
    <use href="#burger" x="1315" y="8" width="100" height="70"/>
    <use href="#burger" x="1510" y="25" width="120" height="85"/>

    <use href="#cup" x="35" y="120" width="90" height="112"/>
    <use href="#fries" x="195" y="150" width="85" height="105"/>
    <use href="#icecream" x="330" y="128" width="80" height="115"/>
    <use href="#cup" x="490" y="120" width="90" height="112"/>
    <use href="#fries" x="645" y="150" width="85" height="105"/>
    <use href="#icecream" x="785" y="128" width="80" height="115"/>
    <use href="#cup" x="940" y="120" width="90" height="112"/>
    <use href="#fries" x="1095" y="150" width="85" height="105"/>
    <use href="#icecream" x="1235" y="128" width="80" height="115"/>
    <use href="#cup" x="1395" y="120" width="90" height="112"/>
    <use href="#fries" x="1545" y="150" width="85" height="105"/>

    <use href="#burger" x="-40" y="335" width="110" height="78"/>
    <use href="#popsicle" x="94" y="305" width="70" height="100"/>
    <use href="#donut" x="215" y="330" width="105" height="105"/>
    <use href="#burger" x="365" y="325" width="115" height="82"/>
    <use href="#popsicle" x="545" y="305" width="70" height="100"/>
    <use href="#donut" x="665" y="330" width="105" height="105"/>
    <use href="#burger" x="815" y="325" width="115" height="82"/>
    <use href="#popsicle" x="995" y="305" width="70" height="100"/>
    <use href="#donut" x="1115" y="330" width="105" height="105"/>
    <use href="#burger" x="1265" y="325" width="115" height="82"/>
    <use href="#popsicle" x="1445" y="305" width="70" height="100"/>
    <use href="#donut" x="1565" y="330" width="105" height="105"/>
  </g>

  <text x="58" y="223" fill="#9966e8" font-family="'Trebuchet MS','Segoe UI',sans-serif" font-size="78" font-weight="500">Hey! I am Zippyy!</text>
  <text x="60" y="290" fill="#ffff77" font-family="'Comic Sans MS','Segoe Print',cursive" font-size="42" font-style="italic">Technologist, Engineer, Traveler, Explorer, Father</text>

  <g transform="translate(1264 114)">
    <path d="M61 126c0-37 30-67 67-67 11 0 21 2 30 7 14-30 44-50 79-50 44 0 81 33 87 75 9-8 22-13 36-13 30 0 55 24 55 55s-25 55-55 55H120c-33 0-59-26-59-59v-3Z" fill="#29c7bf"/>
    <path d="M133 126c0-27 22-49 49-49s49 22 49 49h-31c0-10-8-18-18-18s-18 8-18 18h-31Z" fill="#f36df3"/>
    <path d="M238 126c0-25 20-45 45-45s45 20 45 45h-31c0-8-6-14-14-14s-14 6-14 14h-31Z" fill="#f36df3"/>
    <path d="M0 126h350l-17 31 17 31H0l17-31-17-31Z" fill="#24263b"/>
    <text x="18" y="174" fill="#67afd0" font-family="'Trebuchet MS','Segoe UI',sans-serif" font-size="54" font-weight="700">Tech Relay</text>
  </g>
</svg>
