<svg xmlns="http://www.w3.org/2000/svg" width="842" height="230" viewBox="0 0 842 230" role="img" aria-labelledby="title desc" overflow="hidden">
  <title id="title">Zippyy Tech Relay profile header</title>
  <desc id="desc">Hey! I am Zippyy — Technologist, Engineer, Traveler, Explorer, Father.</desc>

  <defs>
    <clipPath id="banner-clip">
      <rect x="5" y="5" width="832" height="220" rx="4"/>
    </clipPath>

    <symbol id="burger" viewBox="0 0 50 35">
      <path d="M10 14.5C11 7 18 2.5 25 2.5S39 7 40 14.5H10Z"/>
      <path d="M7 17.5h36c1.5 0 2.5 1 2.5 2.5s-1 2.5-2.5 2.5H7c-1.5 0-2.5-1-2.5-2.5s1-2.5 2.5-2.5Z"/>
      <path d="M8.5 26h33c-1 5-5 7.5-9 7.5h-15c-4 0-8-2.5-9-7.5Z"/>
      <path d="m11 23.5 5 3 5-3 5 3 5-3 5 3 5-3" fill="none"/>
    </symbol>

    <symbol id="popsicle" viewBox="0 0 35 50">
      <path d="M7.5 5h20v28c0 5.5-4.5 10-10 10s-10-4.5-10-10V5Z"/>
      <path d="M14 43v5m7-5v5M17.5 12v22"/>
    </symbol>

    <symbol id="donut" viewBox="0 0 50 50">
      <circle cx="25" cy="25" r="17.5"/>
      <circle cx="25" cy="25" r="6"/>
      <path d="M10.5 21c4-6 7.5-2.5 11.5-5 3.5-2.5 6.5 1.5 10.5 1 4.5-.5 6 3.5 8 7.5" fill="none"/>
      <path d="m16 32 2.5-2.5m4 7 1-3.5m6.5 1.5 2.5-2.5m-14-10.5 2.5 1.5m11 3.5 3 1"/>
    </symbol>

    <symbol id="icecream" viewBox="0 0 35 50">
      <path d="M7.5 16c0-5.5 4.5-10 10-10s10 4.5 10 10h-20Z"/>
      <path d="M5 19h25M9 22.5 17.5 46 26 22.5H9ZM12 29h11m-9 6h7"/>
    </symbol>

    <symbol id="cup" viewBox="0 0 40 50">
      <path d="M7.5 13h25L29 43.5H11L7.5 13Z"/>
      <path d="M5 13h30M24 13V4.5h8M20 29a6 6 0 1 0 0 .1"/>
    </symbol>

    <symbol id="fries" viewBox="0 0 40 50">
      <path d="M9 15.5 11 4m4.5 11.5.5-13.5m6 13.5 2-13m5 13 3.5-11"/>
      <path d="M6 17h28l-3.5 26.5h-21L6 17Zm5 4.5h18"/>
    </symbol>
  </defs>

  <rect width="842" height="230" rx="7" fill="#ffffff"/>
  <rect x="5" y="5" width="832" height="220" rx="4" fill="#f36df3"/>

  <g clip-path="url(#banner-clip)">
    <g fill="none" stroke="#ffa3ff" stroke-width="2" stroke-linecap="round" stroke-linejoin="round" opacity="0.62">
      <use href="#burger" x="-10" y="5" width="50" height="35"/>
      <use href="#burger" x="88" y="12" width="60" height="43"/>
      <use href="#burger" x="208" y="4" width="50" height="35"/>
      <use href="#burger" x="310" y="12" width="60" height="43"/>
      <use href="#burger" x="432" y="4" width="50" height="35"/>
      <use href="#burger" x="535" y="12" width="60" height="43"/>
      <use href="#burger" x="658" y="4" width="50" height="35"/>
      <use href="#burger" x="755" y="12" width="60" height="43"/>

      <use href="#cup" x="18" y="60" width="45" height="56"/>
      <use href="#fries" x="98" y="75" width="43" height="53"/>
      <use href="#icecream" x="165" y="64" width="40" height="58"/>
      <use href="#cup" x="245" y="60" width="45" height="56"/>
      <use href="#fries" x="323" y="75" width="43" height="53"/>
      <use href="#icecream" x="393" y="64" width="40" height="58"/>
      <use href="#cup" x="470" y="60" width="45" height="56"/>
      <use href="#fries" x="548" y="75" width="43" height="53"/>
      <use href="#icecream" x="618" y="64" width="40" height="58"/>
      <use href="#cup" x="697" y="60" width="45" height="56"/>
      <use href="#fries" x="772" y="75" width="43" height="53"/>

      <use href="#burger" x="-20" y="167" width="55" height="39"/>
      <use href="#popsicle" x="47" y="152" width="35" height="50"/>
      <use href="#donut" x="108" y="165" width="53" height="53"/>
      <use href="#burger" x="183" y="162" width="58" height="41"/>
      <use href="#popsicle" x="273" y="152" width="35" height="50"/>
      <use href="#donut" x="333" y="165" width="53" height="53"/>
      <use href="#burger" x="408" y="162" width="58" height="41"/>
      <use href="#popsicle" x="498" y="152" width="35" height="50"/>
      <use href="#donut" x="558" y="165" width="53" height="53"/>
      <use href="#burger" x="633" y="162" width="58" height="41"/>
      <use href="#popsicle" x="723" y="152" width="35" height="50"/>
      <use href="#donut" x="783" y="165" width="53" height="53"/>
    </g>

    <text x="30" y="111" fill="#7980ff" font-family="'Trebuchet MS','Segoe UI',sans-serif" font-size="39" font-weight="500">Hey! I am Zippyy!</text>
    <text x="30" y="145" fill="#fff277" font-family="'Comic Sans MS','Segoe Print',cursive" font-size="21" font-style="italic">Technologist, Engineer, Traveler, Explorer, Father</text>

    <g transform="translate(625 50)">
      <path d="M17 76c0-20 16-36 36-36 6 0 12 1.5 17 4 7-16 23-27 42-27 23 0 42 17 45 39 5-4 11-7 18-7 17 0 30 13 30 30s-13 30-30 30H49c-18 0-32-14-32-32v-1Z" fill="#29c7bf"/>
      <path d="M55 76c0-14 11-25 25-25s25 11 25 25H89c0-5-4-9-9-9s-9 4-9 9H55Z" fill="#f36df3"/>
      <path d="M111 76c0-13 10-23 23-23s23 10 23 23h-16c0-4-3-7-7-7s-7 3-7 7h-16Z" fill="#f36df3"/>
      <path d="M0 76h176l-9 16 9 16H0l9-16-9-16Z" fill="#253a47"/>
      <text x="10" y="101" fill="#67afd0" font-family="'Trebuchet MS','Segoe UI',sans-serif" font-size="27" font-weight="700">Tech Relay</text>
    </g>
  </g>
</svg>
